<svg xmlns="http://www.w3.org/2000/svg" viewBox="0 0 340 186" width="340" height="186">
  <defs><clipPath id="c-claro"><path transform="translate(20.20 161.80)" d="M71.4 -140.8Q83.0 -140.8 96.1 -139.2Q109.2 -137.6 120.80000000000001 -133.6L117.0 -106.0Q111.0 -106.2 102.9 -106.2Q94.80000000000001 -106.2 86.0 -106.30000000000001Q77.2 -106.4 68.60000000000001 -106.4Q65.2 -106.4 62.800000000000004 -106.10000000000001Q60.400000000000006 -105.80000000000001 58.800000000000004 -105.20000000000002Q57.2 -104.60000000000001 56.300000000000004 -103.5Q55.400000000000006 -102.4 55.0 -100.80000000000001Q54.800000000000004 -99.4 55.300000000000004 -98.0Q55.800000000000004 -96.60000000000001 57.800000000000004 -95.20000000000002Q59.800000000000004 -93.80000000000001 63.800000000000004 -91.80000000000001L87.0 -80.80000000000001Q98.4 -75.4 104.2 -69.4Q110.0 -63.400000000000006 111.7 -55.7Q113.4 -48.0 112.2 -37.800000000000004Q110.4 -22.0 104.4 -13.1Q98.4 -4.2 86.5 -0.7Q74.60000000000001 2.8000000000000003 54.6 2.8000000000000003Q46.0 2.8000000000000003 31.3 1.3Q16.6 -0.2 0.8 -4.2L4.800000000000001 -34.4Q16.400000000000002 -34.2 26.300000000000004 -33.900000000000006Q36.2 -33.6 43.0 -33.5Q49.800000000000004 -33.4 52.400000000000006 -33.4Q58.6 -33.4 62.10000000000001 -34.0Q65.60000000000001 -34.6 67.30000000000001 -35.900000000000006Q69.0 -37.2 69.4 -39.2Q69.8 -41.0 69.3 -42.2Q68.8 -43.400000000000006 67.2 -44.5Q65.60000000000001 -45.6 62.800000000000004 -47.0L37.6 -59.400000000000006Q26.0 -65.2 20.2 -71.7Q14.4 -78.2 12.8 -85.80000000000001Q11.200000000000001 -93.4 12.200000000000001 -101.80000000000001Q13.600000000000001 -113.2 17.700000000000003 -120.80000000000001Q21.8 -128.4 29.0 -132.7Q36.2 -137.0 46.800000000000004 -138.9Q57.400000000000006 -140.8 71.4 -140.8ZM284.8 -138.0Q292.20000000000005 -138.0 296.0 -133.8Q299.8 -129.6 299.0 -122.2L286.6 0.0H247.60000000000002L258.4 -105.60000000000001H255.60000000000002L232.4 -34.4Q230.4 -27.8 226.2 -24.9Q222.0 -22.0 215.0 -22.0H193.0Q186.2 -22.0 182.1 -25.700000000000003Q178.0 -29.400000000000002 177.60000000000002 -36.0L173.8 -105.60000000000001H170.60000000000002L152.4 0.0H113.4L135.60000000000002 -123.80000000000001Q137.0 -131.20000000000002 140.5 -134.60000000000002Q144.0 -138.0 151.4 -138.0H188.2Q195.0 -138.0 199.0 -134.3Q203.0 -130.6 203.20000000000002 -123.80000000000001L205.60000000000002 -69.0Q206.0 -64.0 205.8 -58.900000000000006Q205.60000000000002 -53.800000000000004 205.20000000000002 -48.400000000000006H207.20000000000002Q208.4 -54.2 209.60000000000002 -58.900000000000006Q210.8 -63.6 212.20000000000002 -68.60000000000001L229.0 -125.4Q230.8 -132.20000000000002 235.10000000000002 -135.10000000000002Q239.4 -138.0 246.20000000000002 -138.0Z"/></clipPath></defs>
  <g stroke-linejoin="miter" stroke-miterlimit="4">
    <path transform="translate(20.20 161.80)" d="M71.4 -140.8Q83.0 -140.8 96.1 -139.2Q109.2 -137.6 120.80000000000001 -133.6L117.0 -106.0Q111.0 -106.2 102.9 -106.2Q94.80000000000001 -106.2 86.0 -106.30000000000001Q77.2 -106.4 68.60000000000001 -106.4Q65.2 -106.4 62.800000000000004 -106.10000000000001Q60.400000000000006 -105.80000000000001 58.800000000000004 -105.20000000000002Q57.2 -104.60000000000001 56.300000000000004 -103.5Q55.400000000000006 -102.4 55.0 -100.80000000000001Q54.800000000000004 -99.4 55.300000000000004 -98.0Q55.800000000000004 -96.60000000000001 57.800000000000004 -95.20000000000002Q59.800000000000004 -93.80000000000001 63.800000000000004 -91.80000000000001L87.0 -80.80000000000001Q98.4 -75.4 104.2 -69.4Q110.0 -63.400000000000006 111.7 -55.7Q113.4 -48.0 112.2 -37.800000000000004Q110.4 -22.0 104.4 -13.1Q98.4 -4.2 86.5 -0.7Q74.60000000000001 2.8000000000000003 54.6 2.8000000000000003Q46.0 2.8000000000000003 31.3 1.3Q16.6 -0.2 0.8 -4.2L4.800000000000001 -34.4Q16.400000000000002 -34.2 26.300000000000004 -33.900000000000006Q36.2 -33.6 43.0 -33.5Q49.800000000000004 -33.4 52.400000000000006 -33.4Q58.6 -33.4 62.10000000000001 -34.0Q65.60000000000001 -34.6 67.30000000000001 -35.900000000000006Q69.0 -37.2 69.4 -39.2Q69.8 -41.0 69.3 -42.2Q68.8 -43.400000000000006 67.2 -44.5Q65.60000000000001 -45.6 62.800000000000004 -47.0L37.6 -59.400000000000006Q26.0 -65.2 20.2 -71.7Q14.4 -78.2 12.8 -85.80000000000001Q11.200000000000001 -93.4 12.200000000000001 -101.80000000000001Q13.600000000000001 -113.2 17.700000000000003 -120.80000000000001Q21.8 -128.4 29.0 -132.7Q36.2 -137.0 46.800000000000004 -138.9Q57.400000000000006 -140.8 71.4 -140.8ZM284.8 -138.0Q292.20000000000005 -138.0 296.0 -133.8Q299.8 -129.6 299.0 -122.2L286.6 0.0H247.60000000000002L258.4 -105.60000000000001H255.60000000000002L232.4 -34.4Q230.4 -27.8 226.2 -24.9Q222.0 -22.0 215.0 -22.0H193.0Q186.2 -22.0 182.1 -25.700000000000003Q178.0 -29.400000000000002 177.60000000000002 -36.0L173.8 -105.60000000000001H170.60000000000002L152.4 0.0H113.4L135.60000000000002 -123.80000000000001Q137.0 -131.20000000000002 140.5 -134.60000000000002Q144.0 -138.0 151.4 -138.0H188.2Q195.0 -138.0 199.0 -134.3Q203.0 -130.6 203.20000000000002 -123.80000000000001L205.60000000000002 -69.0Q206.0 -64.0 205.8 -58.900000000000006Q205.60000000000002 -53.800000000000004 205.20000000000002 -48.400000000000006H207.20000000000002Q208.4 -54.2 209.60000000000002 -58.900000000000006Q210.8 -63.6 212.20000000000002 -68.60000000000001L229.0 -125.4Q230.8 -132.20000000000002 235.10000000000002 -135.10000000000002Q239.4 -138.0 246.20000000000002 -138.0Z" fill="#0a0c11" stroke="#0a0c11" stroke-width="42"/>
    <path transform="translate(20.20 161.80)" d="M71.4 -140.8Q83.0 -140.8 96.1 -139.2Q109.2 -137.6 120.80000000000001 -133.6L117.0 -106.0Q111.0 -106.2 102.9 -106.2Q94.80000000000001 -106.2 86.0 -106.30000000000001Q77.2 -106.4 68.60000000000001 -106.4Q65.2 -106.4 62.800000000000004 -106.10000000000001Q60.400000000000006 -105.80000000000001 58.800000000000004 -105.20000000000002Q57.2 -104.60000000000001 56.300000000000004 -103.5Q55.400000000000006 -102.4 55.0 -100.80000000000001Q54.800000000000004 -99.4 55.300000000000004 -98.0Q55.800000000000004 -96.60000000000001 57.800000000000004 -95.20000000000002Q59.800000000000004 -93.80000000000001 63.800000000000004 -91.80000000000001L87.0 -80.80000000000001Q98.4 -75.4 104.2 -69.4Q110.0 -63.400000000000006 111.7 -55.7Q113.4 -48.0 112.2 -37.800000000000004Q110.4 -22.0 104.4 -13.1Q98.4 -4.2 86.5 -0.7Q74.60000000000001 2.8000000000000003 54.6 2.8000000000000003Q46.0 2.8000000000000003 31.3 1.3Q16.6 -0.2 0.8 -4.2L4.800000000000001 -34.4Q16.400000000000002 -34.2 26.300000000000004 -33.900000000000006Q36.2 -33.6 43.0 -33.5Q49.800000000000004 -33.4 52.400000000000006 -33.4Q58.6 -33.4 62.10000000000001 -34.0Q65.60000000000001 -34.6 67.30000000000001 -35.900000000000006Q69.0 -37.2 69.4 -39.2Q69.8 -41.0 69.3 -42.2Q68.8 -43.400000000000006 67.2 -44.5Q65.60000000000001 -45.6 62.800000000000004 -47.0L37.6 -59.400000000000006Q26.0 -65.2 20.2 -71.7Q14.4 -78.2 12.8 -85.80000000000001Q11.200000000000001 -93.4 12.200000000000001 -101.80000000000001Q13.600000000000001 -113.2 17.700000000000003 -120.80000000000001Q21.8 -128.4 29.0 -132.7Q36.2 -137.0 46.800000000000004 -138.9Q57.400000000000006 -140.8 71.4 -140.8ZM284.8 -138.0Q292.20000000000005 -138.0 296.0 -133.8Q299.8 -129.6 299.0 -122.2L286.6 0.0H247.60000000000002L258.4 -105.60000000000001H255.60000000000002L232.4 -34.4Q230.4 -27.8 226.2 -24.9Q222.0 -22.0 215.0 -22.0H193.0Q186.2 -22.0 182.1 -25.700000000000003Q178.0 -29.400000000000002 177.60000000000002 -36.0L173.8 -105.60000000000001H170.60000000000002L152.4 0.0H113.4L135.60000000000002 -123.80000000000001Q137.0 -131.20000000000002 140.5 -134.60000000000002Q144.0 -138.0 151.4 -138.0H188.2Q195.0 -138.0 199.0 -134.3Q203.0 -130.6 203.20000000000002 -123.80000000000001L205.60000000000002 -69.0Q206.0 -64.0 205.8 -58.900000000000006Q205.60000000000002 -53.800000000000004 205.20000000000002 -48.400000000000006H207.20000000000002Q208.4 -54.2 209.60000000000002 -58.900000000000006Q210.8 -63.6 212.20000000000002 -68.60000000000001L229.0 -125.4Q230.8 -132.20000000000002 235.10000000000002 -135.10000000000002Q239.4 -138.0 246.20000000000002 -138.0Z" fill="#ff006d" stroke="#ff006d" stroke-width="20"/>
    <path transform="translate(20.20 161.80)" d="M71.4 -140.8Q83.0 -140.8 96.1 -139.2Q109.2 -137.6 120.80000000000001 -133.6L117.0 -106.0Q111.0 -106.2 102.9 -106.2Q94.80000000000001 -106.2 86.0 -106.30000000000001Q77.2 -106.4 68.60000000000001 -106.4Q65.2 -106.4 62.800000000000004 -106.10000000000001Q60.400000000000006 -105.80000000000001 58.800000000000004 -105.20000000000002Q57.2 -104.60000000000001 56.300000000000004 -103.5Q55.400000000000006 -102.4 55.0 -100.80000000000001Q54.800000000000004 -99.4 55.300000000000004 -98.0Q55.800000000000004 -96.60000000000001 57.800000000000004 -95.20000000000002Q59.800000000000004 -93.80000000000001 63.800000000000004 -91.80000000000001L87.0 -80.80000000000001Q98.4 -75.4 104.2 -69.4Q110.0 -63.400000000000006 111.7 -55.7Q113.4 -48.0 112.2 -37.800000000000004Q110.4 -22.0 104.4 -13.1Q98.4 -4.2 86.5 -0.7Q74.60000000000001 2.8000000000000003 54.6 2.8000000000000003Q46.0 2.8000000000000003 31.3 1.3Q16.6 -0.2 0.8 -4.2L4.800000000000001 -34.4Q16.400000000000002 -34.2 26.300000000000004 -33.900000000000006Q36.2 -33.6 43.0 -33.5Q49.800000000000004 -33.4 52.400000000000006 -33.4Q58.6 -33.4 62.10000000000001 -34.0Q65.60000000000001 -34.6 67.30000000000001 -35.900000000000006Q69.0 -37.2 69.4 -39.2Q69.8 -41.0 69.3 -42.2Q68.8 -43.400000000000006 67.2 -44.5Q65.60000000000001 -45.6 62.800000000000004 -47.0L37.6 -59.400000000000006Q26.0 -65.2 20.2 -71.7Q14.4 -78.2 12.8 -85.80000000000001Q11.200000000000001 -93.4 12.200000000000001 -101.80000000000001Q13.600000000000001 -113.2 17.700000000000003 -120.80000000000001Q21.8 -128.4 29.0 -132.7Q36.2 -137.0 46.800000000000004 -138.9Q57.400000000000006 -140.8 71.4 -140.8ZM284.8 -138.0Q292.20000000000005 -138.0 296.0 -133.8Q299.8 -129.6 299.0 -122.2L286.6 0.0H247.60000000000002L258.4 -105.60000000000001H255.60000000000002L232.4 -34.4Q230.4 -27.8 226.2 -24.9Q222.0 -22.0 215.0 -22.0H193.0Q186.2 -22.0 182.1 -25.700000000000003Q178.0 -29.400000000000002 177.60000000000002 -36.0L173.8 -105.60000000000001H170.60000000000002L152.4 0.0H113.4L135.60000000000002 -123.80000000000001Q137.0 -131.20000000000002 140.5 -134.60000000000002Q144.0 -138.0 151.4 -138.0H188.2Q195.0 -138.0 199.0 -134.3Q203.0 -130.6 203.20000000000002 -123.80000000000001L205.60000000000002 -69.0Q206.0 -64.0 205.8 -58.900000000000006Q205.60000000000002 -53.800000000000004 205.20000000000002 -48.400000000000006H207.20000000000002Q208.4 -54.2 209.60000000000002 -58.900000000000006Q210.8 -63.6 212.20000000000002 -68.60000000000001L229.0 -125.4Q230.8 -132.20000000000002 235.10000000000002 -135.10000000000002Q239.4 -138.0 246.20000000000002 -138.0Z" fill="#ffffff"/>
    <path clip-path="url(#c-claro)" d="M15.0 130.9 L110.5 124.9 L15.0 142.9 Z M152.3 130.9 L241.8 124.9 L152.3 142.9 Z" fill="#ff006d"/>
  </g>
</svg>
